<?xml version="1.0" encoding="us-ascii" standalone="no"?><svg xmlns="http://www.w3.org/2000/svg" xmlns:xlink="http://www.w3.org/1999/xlink" contentStyleType="text/css" height="345px" preserveAspectRatio="none" style="width:533px;height:345px;background:#FFFFFF;" version="1.1" viewBox="0 0 533 345" width="533px" zoomAndPan="magnify"><defs/><g><!--cluster ohm--><g id="cluster_ohm"><path d="M8.5,6 L41.5,6 A3.75,3.75 0 0 1 44,8.5 L51,28.4883 L523.5,28.4883 A2.5,2.5 0 0 1 526,30.9883 L526,336.48 A2.5,2.5 0 0 1 523.5,338.98 L8.5,338.98 A2.5,2.5 0 0 1 6,336.48 L6,8.5 A2.5,2.5 0 0 1 8.5,6 " fill="none" style="stroke:#000000;stroke-width:1.5;"/><line style="stroke:#000000;stroke-width:1.5;" x1="6" x2="51" y1="28.4883" y2="28.4883"/><text fill="#000000" font-family="sans-serif" font-size="14" font-weight="bold" lengthAdjust="spacing" textLength="32" x="10" y="21.5352">ohm</text></g><!--cluster softa--><g id="cluster_softa"><path d="M32.5,49 L70.5,49 A3.75,3.75 0 0 1 73,51.5 L80,71.4883 L499.5,71.4883 A2.5,2.5 0 0 1 502,73.9883 L502,312.48 A2.5,2.5 0 0 1 499.5,314.98 L32.5,314.98 A2.5,2.5 0 0 1 30,312.48 L30,51.5 A2.5,2.5 0 0 1 32.5,49 " fill="none" style="stroke:#000000;stroke-width:1.5;"/><line style="stroke:#000000;stroke-width:1.5;" x1="30" x2="80" y1="71.4883" y2="71.4883"/><text fill="#000000" font-family="sans-serif" font-size="14" font-weight="bold" lengthAdjust="spacing" textLength="37" x="34" y="64.5352">softa</text></g><!--cluster a13--><g id="cluster_a13"><path d="M56.5,92 L83.5,92 A3.75,3.75 0 0 1 86,94.5 L93,114.4883 L475.5,114.4883 A2.5,2.5 0 0 1 478,116.9883 L478,288.48 A2.5,2.5 0 0 1 475.5,290.98 L56.5,290.98 A2.5,2.5 0 0 1 54,288.48 L54,94.5 A2.5,2.5 0 0 1 56.5,92 " fill="none" style="stroke:#000000;stroke-width:1.5;"/><line style="stroke:#000000;stroke-width:1.5;" x1="54" x2="93" y1="114.4883" y2="114.4883"/><text fill="#000000" font-family="sans-serif" font-size="14" font-weight="bold" lengthAdjust="spacing" textLength="26" x="58" y="107.5352">a13</text></g><!--cluster tweets--><g id="cluster_tweets"><path d="M80.5,135 L129.5,135 A3.75,3.75 0 0 1 132,137.5 L139,157.4883 L451.5,157.4883 A2.5,2.5 0 0 1 454,159.9883 L454,264.48 A2.5,2.5 0 0 1 451.5,266.98 L80.5,266.98 A2.5,2.5 0 0 1 78,264.48 L78,137.5 A2.5,2.5 0 0 1 80.5,135 " fill="none" style="stroke:#000000;stroke-width:1.5;"/><line style="stroke:#000000;stroke-width:1.5;" x1="78" x2="139" y1="157.4883" y2="157.4883"/><text fill="#000000" font-family="sans-serif" font-size="14" font-weight="bold" lengthAdjust="spacing" textLength="48" x="82" y="150.5352">tweets</text></g><!--class TweetStreamGenerator--><g id="elem_TweetStreamGenerator"><rect codeLine="4" fill="#F1F1F1" height="80.9766" id="TweetStreamGenerator" rx="2.5" ry="2.5" style="stroke:#181818;stroke-width:0.5;" width="344" x="94" y="170"/><ellipse cx="177.25" cy="186" fill="#ADD1B2" rx="11" ry="11" style="stroke:#181818;stroke-width:1.0;"/><path d="M179.7231,192.1431 Q179.1421,192.4419 178.5029,192.5913 Q177.8638,192.7407 177.1582,192.7407 Q174.6514,192.7407 173.3315,191.0889 Q172.0117,189.437 172.0117,186.3159 Q172.0117,183.1865 173.3315,181.5347 Q174.6514,179.8828 177.1582,179.8828 Q177.8638,179.8828 178.5112,180.0322 Q179.1587,180.1816 179.7231,180.4805 L179.7231,183.2031 Q179.0923,182.6221 178.4988,182.3523 Q177.9053,182.0825 177.2744,182.0825 Q175.9297,182.0825 175.2449,183.1492 Q174.5601,184.2158 174.5601,186.3159 Q174.5601,188.4077 175.2449,189.4744 Q175.9297,190.541 177.2744,190.541 Q177.9053,190.541 178.4988,190.2712 Q179.0923,190.0015 179.7231,189.4204 Z " fill="#000000"/><ellipse cx="202.75" cy="185.5" fill="#84BE84" rx="3" ry="3" style="stroke:#038048;stroke-width:1.0;"/><text fill="#000000" font-family="sans-serif" font-size="14" lengthAdjust="spacing" textLength="158" x="208.75" y="191.291">TweetStreamGenerator</text><line style="stroke:#181818;stroke-width:0.5;" x1="95" x2="437" y1="202" y2="202"/><line style="stroke:#181818;stroke-width:0.5;" x1="95" x2="437" y1="210" y2="210"/><rect fill="#F24D5C" height="6" style="stroke:#C82930;stroke-width:1.0;" width="6" x="102" y="220.7441"/><text fill="#000000" font-family="sans-serif" font-size="14" lengthAdjust="spacing" text-decoration="underline" textLength="318" x="114" y="227.5352">fromJson(path: String): TweetStreamGenerator</text><ellipse cx="105" cy="240.2324" fill="#84BE84" rx="3" ry="3" style="stroke:#038048;stroke-width:1.0;"/><text fill="#000000" font-family="sans-serif" font-size="14" lengthAdjust="spacing" textLength="247" x="114" y="244.0234">getTweetsStream(): Stream&lt;Tweet&gt;</text></g><!--SRC=[AqXCpavCJrN8pyZLAyvFAqdKIpGqrYifJqqjALQevk9IW0Bjv9p4ucA54914S4bHQcAkUsfUQb5YINuHK9a26j2jBYv9BCbChaqhoi_rAixFqoX8BCcmKW3gpCnBrxJ2QWw6AThfgILWXSKGbHgQO1E0B1kmi1rSHorNBHS0]--></g></svg>